<svg width="18" height="18" viewBox="0 0 18 18" fill="none" xmlns="http://www.w3.org/2000/svg">
<rect width="18" height="18" rx="9" fill="#7F8B9E"/>
<path d="M5.19501 4.34937C4.97078 4.34943 4.75577 4.43855 4.59724 4.59712C4.43872 4.75569 4.34966 4.97072 4.34966 5.19494C4.34966 5.41915 4.43872 5.63419 4.59724 5.79276L7.8045 9.00006L4.59724 12.2072C4.43868 12.3658 4.34961 12.5809 4.34961 12.8051C4.34961 13.0294 4.43868 13.2444 4.59724 13.403C4.75581 13.5615 4.97085 13.6506 5.19507 13.6506C5.41929 13.6506 5.63433 13.5615 5.7929 13.403L9.00027 10.1957L12.2075 13.403C12.3661 13.5615 12.5811 13.6506 12.8053 13.6506C13.0296 13.6506 13.2446 13.5615 13.4032 13.403C13.5617 13.2444 13.6508 13.0294 13.6508 12.8051C13.6508 12.5809 13.5617 12.3658 13.4032 12.2072L10.1959 9.00006L13.4032 5.79276C13.5617 5.63419 13.6507 5.41915 13.6507 5.19494C13.6507 4.97072 13.5617 4.75569 13.4032 4.59712C13.2446 4.43855 13.0296 4.34943 12.8054 4.34937C12.6944 4.34938 12.5844 4.37127 12.4818 4.41378C12.3792 4.45629 12.286 4.51859 12.2075 4.59712L9.00027 7.80442L5.7929 4.59712C5.71439 4.51859 5.62118 4.45629 5.5186 4.41378C5.41601 4.37127 5.30605 4.34938 5.19501 4.34937Z" fill="#223A60"/>
</svg>
