<svg clip-rule="evenodd" fill-rule="evenodd" height="43.349mm" image-rendering="optimizeQuality" shape-rendering="geometricPrecision" text-rendering="geometricPrecision" viewBox="0 0 4335 4335" width="43.349mm" xmlns="http://www.w3.org/2000/svg"><g id="Layer_x0020_1"><path d="m3215 3183h-196c-5 5-10 10-15 15-81 73-188 112-297 106l-326-16-32-161c-4-20-23-33-43-29s-33 23-29 43l36 187 1 5 102 523-136-7c-45-2-65-54-82-90-5-10-9-21-15-31l-320-634c-9-19-31-26-49-17-19 10-26 32-17 50l69 136-684-34 7-32 3-12c2 0 3-1 5-2h-72c-33 0-60-26-60-59s27-60 60-60h120c19-31 43-59 70-83 81-74 187-112 297-107l459 23h3l367 18h2 1l376 19c16 1 29-7 35-21l115-251c15-34 38-87 82-85l103 5-16 331c-3 53-15 104-37 151h113c33 0 59 27 59 60s-26 59-59 59zm-1309-2229 293-14-228-393c-14-24-35-70-68-68l-99 5zm245 942 236-467 2-4 102-202c9-19 33-27 52-17s27 33 17 52l-72 144 725-36-7-33c-1-5-2-9-3-13-5-1-9-3-13-5h20c33 0 60-27 60-60s-27-60-60-60h-61c-82-130-231-213-392-205l-487 24-3 1-390 19h-4l-398 20c-16 1-31-9-38-23l-121-266c-16-35-41-93-87-90l-110 5 18 351c2 58 16 113 40 164h-57c-33 0-59 27-59 60s26 60 59 60h140c7 6 13 12 20 19 86 78 199 118 315 113l346-17 34-171c4-22 24-35 46-31 21 4 34 24 30 46l-38 198-1 5-108 554 144-6c48-2 69-58 87-95 5-12 10-23 16-34zm263 944 96-443-92-5c-32-1-52 41-66 65l-8 15-206 355zm-1646 320c-4 0-9-1-13-2-41-10-82-22-122-37-31-11-47-45-35-76s46-47 77-35c35 12 71 23 107 32 32 7 52 39 45 71-7 28-31 47-59 47zm2803-1c-27 0-52-19-58-46-8-33 12-65 44-72 36-9 72-20 107-33 31-11 65 4 77 35s-4 65-35 77c-39 15-80 27-121 37-5 1-10 2-14 2zm-3221-219c-14 0-29-5-40-16-31-28-61-59-88-91-22-25-19-63 6-84s63-18 84 7c25 28 51 55 78 80 25 22 26 60 4 84-12 13-28 20-44 20zm3638-3c-16 0-32-7-44-20-22-24-21-62 4-84 27-25 53-52 77-81 22-25 59-28 84-7 26 22 29 59 7 85-27 32-56 63-87 91-12 11-26 16-41 16zm-3897-393c-25 0-48-15-56-40-14-40-25-82-33-123-6-32 15-64 47-70 32-7 64 14 70 47 7 36 17 73 29 108 10 31-6 65-38 75-6 2-13 3-19 3zm4154-4c-6 0-12-1-19-3-31-10-48-44-38-75 12-36 22-72 29-108 6-33 37-54 69-48 33 7 54 38 48 70-8 42-19 83-32 123-8 25-32 41-57 41zm-4185-467c-4 0-8 0-12-1-32-6-53-37-47-70 8-41 19-83 32-123 10-31 44-48 76-38 31 11 48 44 38 76-12 35-22 71-29 108-5 28-30 48-58 48zm4214-4c-28 0-53-20-58-48-7-37-17-73-29-108-10-32 6-65 38-76 31-11 65 6 75 38 14 40 25 81 33 122 6 33-15 64-47 71-4 0-8 1-12 1zm-4010-422c-14 0-27-5-38-14-26-21-29-59-7-84 27-33 56-63 87-92 25-22 62-20 85 4 22 24 20 62-4 84-27 25-53 52-77 81-12 14-29 21-46 21zm3804-3c-17 0-34-7-45-21-25-29-51-56-78-81-25-22-26-60-4-84s60-26 84-4c31 28 61 59 88 91 22 25 19 63-6 84-11 10-25 15-39 15zm-3418-270c-24 0-47-15-56-39-12-30 4-65 35-76 39-15 80-28 121-38 32-7 65 13 72 45 8 32-12 64-44 72-36 8-72 19-107 32-7 3-14 4-21 4zm3031-1c-7 0-14-2-21-4-35-13-71-24-107-32-32-8-52-40-45-72 8-32 40-52 72-45 41 10 82 22 122 37 31 11 46 46 35 77-9 24-32 39-56 39z" fill="rgb(34,58,96)"/></g></svg>