<svg width="32" height="32" viewBox="0 0 32 32" fill="none" xmlns="http://www.w3.org/2000/svg">
<path d="M7 7C9.45362 4.54637 10.6804 3.31956 12.0039 2.66375C14.5219 1.41598 17.4781 1.41598 19.9961 2.66375C21.3196 3.31956 22.5464 4.54637 25 7C27.4536 9.45362 28.6804 10.6804 29.3363 12.0039C30.584 14.5219 30.584 17.4781 29.3363 19.9961C28.6804 21.3196 27.4536 22.5464 25 25C22.5464 27.4536 21.3196 28.6804 19.9961 29.3363C17.4781 30.584 14.5219 30.584 12.0039 29.3363C10.6804 28.6804 9.45362 27.4536 7 25C4.54637 22.5464 3.31956 21.3196 2.66375 19.9961C1.41598 17.4781 1.41598 14.5219 2.66375 12.0039C3.31956 10.6804 4.54637 9.45362 7 7Z" fill="#DEE2E7"/>
<path fill-rule="evenodd" clip-rule="evenodd" d="M9.50034 22H22.5003C22.7763 22 23.0003 21.776 23.0003 21.5C23.0003 21.224 22.7763 21 22.5003 21H9.50034C9.22434 21 9.00034 21.224 9.00034 21.5C9.00034 21.776 9.22434 22 9.50034 22ZM13.6243 14.9105L11.6573 16.046L9.12534 15.3675C8.93034 15.315 8.72284 15.3855 8.59934 15.546C8.47634 15.7065 8.46184 15.9255 8.56334 16.1005C8.56334 16.1005 9.40884 17.565 10.0633 18.6985C10.3283 19.158 10.7653 19.493 11.2773 19.6305C11.7898 19.7675 12.3358 19.696 12.7953 19.4305C15.7568 17.7205 22.7543 13.6805 22.7543 13.6805C22.8843 13.6055 22.9738 13.476 22.9978 13.328C23.0223 13.18 22.9783 13.029 22.8793 12.9165C22.8793 12.9165 22.5383 12.5305 22.1158 12.1815C21.7968 11.9175 21.4298 11.684 21.1158 11.6C20.3473 11.394 19.5283 11.5015 18.8393 11.8995L17.3838 12.74L12.8778 11.329C12.4463 11.194 11.9783 11.365 11.7353 11.746C11.4928 12.127 11.5358 12.624 11.8403 12.9575L13.6243 14.9105Z" fill="#223A60"/>
</svg>
