<svg clip-rule="evenodd" fill-rule="evenodd" stroke-linejoin="round" stroke-miterlimit="2" viewBox="0 0 32 32" xmlns="http://www.w3.org/2000/svg"><g transform="translate(0 -48)"><path d="m3 76h26c.552 0 1-.448 1-1s-.448-1-1-1h-26c-.552 0-1 .448-1 1s.448 1 1 1zm8.248-14.179-3.934 2.271s-5.064-1.357-5.064-1.357c-.39-.105-.805.036-1.052.357-.246.321-.275.759-.072 1.109 0 0 1.691 2.929 3 5.196.53.919 1.404 1.589 2.428 1.864 1.025.274 2.117.131 3.036-.4 5.923-3.42 19.918-11.5 19.918-11.5.26-.15.439-.409.487-.705.049-.296-.039-.598-.237-.823 0 0-.682-.772-1.527-1.47-.638-.528-1.372-.995-2-1.163-1.537-.412-3.175-.197-4.553.599 0 0-2.911 1.681-2.911 1.681l-9.012-2.822c-.863-.27-1.799.072-2.285.834-.485.762-.399 1.756.21 2.423z"/></g></svg>