<svg id="Layer_1" enable-background="new 0 0 512 512" viewBox="0 0 512 512" xmlns="http://www.w3.org/2000/svg"><path fill="#223A60" clip-rule="evenodd" d="m71.232 166.15-55.232-45.041 20.163-13.368 54.008 19.465 185.673-107.199c30.784-17.773 91.806 6.451 33.389 40.177l-42.454 24.511-39.479 137.495-26.425 15.256 1.848-116.306s-110.817 61.082-131.491 45.01zm377.547 24.491c-21.019-36.812-65.561-90.054-31.493-124.121 18.273-18.273 48.174-18.273 66.447 0 34.351 34.351-12.357 91.005-31.487 124.129-.77 1.333-2.703 1.329-3.467-.008zm-14.806 38.128c5.473 1.228 10.085-4.103 8.084-9.352-.855-2.185-2.687-3.771-4.974-4.298-4.845-1.1-9.568-1.931-14.499-2.544-2.433-.291-4.791.687-6.321 2.596-3.393 4.315-.79 10.615 4.644 11.303 4.449.554 8.696 1.302 13.066 2.295zm-53.129-1.672c5.629-.819 8.003-7.58 4.114-11.739-1.577-1.653-3.798-2.44-6.063-2.124-4.796.688-9.556 1.527-14.296 2.545-3.664.799-6.069 4.367-5.401 8.064.697 3.911 4.5 6.461 8.382 5.615 4.41-.946 8.799-1.72 13.264-2.361zm-51.919 14.765c5.209-2.268 5.725-9.43.876-12.409-1.966-1.177-4.297-1.357-6.409-.452-4.409 1.88-8.738 3.879-13.049 5.983-4.678 2.323-5.277 8.695-1.129 11.867 2.15 1.594 4.9 1.866 7.311.694 4.098-2 8.205-3.894 12.4-5.683zm-47.693 26.429c4.439-3.083 3.889-9.764-.993-12.096-2.289-1.06-4.872-.849-6.957.572-3.923 2.69-7.799 5.473-11.611 8.319-4.472 3.381-3.38 10.358 1.917 12.212 2.218.755 4.617.388 6.494-1.02 3.665-2.74 7.376-5.4 11.15-7.987zm-42.706 34.488c2.378-2.255 2.893-5.78 1.258-8.62-2.287-3.899-7.542-4.659-10.847-1.581-3.463 3.238-6.873 6.526-10.233 9.871-3.427 3.427-2.408 9.206 1.967 11.282 2.681 1.253 5.84.71 7.936-1.386 3.256-3.242 6.562-6.428 9.919-9.566zm-37.969 40.018c2.967-3.514 1.797-8.862-2.348-10.844-2.876-1.354-6.294-.623-8.347 1.809-3.054 3.598-6.058 7.245-9.027 10.913-1.718 2.148-2.025 5.004-.834 7.478 2.299 4.597 8.492 5.288 11.736 1.305 2.904-3.587 5.834-7.143 8.82-10.661zm-33.777 43.852c3.175-4.571.059-10.829-5.516-11.018-2.378-.064-4.57 1.035-5.944 2.977-2.704 3.866-5.381 7.742-8.017 11.655-1.438 2.148-1.575 4.861-.387 7.152 2.488 4.691 9.044 5.049 12.013.647 2.582-3.832 5.203-7.627 7.851-11.413zm-30.159 46.563c2.673-4.466-.308-10.193-5.5-10.576-2.637-.193-5.158 1.122-6.515 3.39-2.413 4.049-4.797 8.105-7.161 12.184-1.428 2.512-1.191 5.596.61 7.856 3.125 3.848 9.054 3.387 11.539-.899 2.32-4.002 4.659-7.982 7.027-11.955zm-27.053 48.522c2.339-4.549-.797-9.934-5.894-10.206-2.757-.11-5.268 1.332-6.545 3.782-2.16 4.166-4.293 8.34-6.41 12.527-2.633 5.303 2.012 11.251 7.801 9.974 2.063-.484 3.744-1.786 4.704-3.68 2.095-4.143 4.206-8.274 6.344-12.397zm-49.649-28.236c-21.019-36.812-65.561-90.054-31.493-124.121 18.273-18.273 48.174-18.273 66.448 0 34.351 34.351-12.357 91.005-31.487 124.129-.77 1.333-2.704 1.328-3.468-.008zm1.651-111.083c-9.583 0-17.351 7.768-17.351 17.351 0 9.582 7.768 17.351 17.351 17.351s17.351-7.768 17.351-17.351-7.768-17.351-17.351-17.351zm388.859-262.856c-9.583 0-17.351 7.768-17.351 17.351 0 9.582 7.768 17.351 17.351 17.351 9.582 0 17.351-7.768 17.351-17.351s-7.768-17.351-17.351-17.351zm-361.76-36.46 60.693 33.767 49.004-28.293-83.273-20.731z" fill-rule="evenodd"/></svg>