<svg width="21" height="31" viewBox="0 0 21 31" fill="none" xmlns="http://www.w3.org/2000/svg">
<g clip-path="url(#clip0_62_14002)">
<path d="M9.20391 30.225C6.34922 26.3379 0 16.9168 0 11.625C0 5.20461 4.70094 0 10.5 0C16.2969 0 21 5.20461 21 11.625C21 16.9168 14.6016 26.3379 11.7961 30.225C11.1234 31.1514 9.87656 31.1514 9.20391 30.225ZM10.5 15.5C12.4305 15.5 14 13.7623 14 11.625C14 9.4877 12.4305 7.75 10.5 7.75C8.56953 7.75 7 9.4877 7 11.625C7 13.7623 8.56953 15.5 10.5 15.5Z" fill="#E28B8B"/>
</g>
<defs>
<clipPath id="clip0_62_14002">
<rect width="21" height="31" fill="white"/>
</clipPath>
</defs>
</svg>
