<svg width="40" height="40" viewBox="0 0 40 40" fill="none" xmlns="http://www.w3.org/2000/svg">
<g filter="url(#filter0_ddd_63_1273)">
<path d="M10 10C10 6.26154 10 4.3923 10.8038 3C11.3305 2.08788 12.0879 1.33046 13 0.803847C14.3923 0 16.2615 0 20 0C23.7385 0 25.6077 0 27 0.803847C27.9121 1.33046 28.6695 2.08788 29.1962 3C30 4.3923 30 6.26154 30 10C30 13.7385 30 15.6077 29.1962 17C28.6695 17.9121 27.9121 18.6695 27 19.1962C25.6077 20 23.7385 20 20 20C16.2615 20 14.3923 20 13 19.1962C12.0879 18.6695 11.3305 17.9121 10.8038 17C10 15.6077 10 13.7385 10 10Z" fill="url(#paint0_linear_63_1273)" fill-opacity="0.7" shape-rendering="crispEdges"/>
<path d="M10.5 10C10.5 8.12157 10.5005 6.74617 10.5984 5.66532C10.6958 4.59135 10.8862 3.85737 11.2369 3.25C11.7196 2.41389 12.4139 1.71959 13.25 1.23686C13.8574 0.886195 14.5913 0.695778 15.6653 0.59844C16.7462 0.500479 18.1216 0.5 20 0.5C21.8784 0.5 23.2538 0.500479 24.3347 0.59844C25.4087 0.695778 26.1426 0.886195 26.75 1.23686C27.5861 1.71959 28.2804 2.41389 28.7631 3.25C29.1138 3.85737 29.3042 4.59135 29.4016 5.66532C29.4995 6.74617 29.5 8.12157 29.5 10C29.5 11.8784 29.4995 13.2538 29.4016 14.3347C29.3042 15.4087 29.1138 16.1426 28.7631 16.75C28.2804 17.5861 27.5861 18.2804 26.75 18.7631C26.1426 19.1138 25.4087 19.3042 24.3347 19.4016C23.2538 19.4995 21.8784 19.5 20 19.5C18.1216 19.5 16.7462 19.4995 15.6653 19.4016C14.5913 19.3042 13.8574 19.1138 13.25 18.7631C12.4139 18.2804 11.7196 17.5861 11.2369 16.75C10.8862 16.1426 10.6958 15.4087 10.5984 14.3347C10.5005 13.2538 10.5 11.8784 10.5 10Z" stroke="white" stroke-opacity="0.07" shape-rendering="crispEdges"/>
<path d="M10.5 10C10.5 8.12157 10.5005 6.74617 10.5984 5.66532C10.6958 4.59135 10.8862 3.85737 11.2369 3.25C11.7196 2.41389 12.4139 1.71959 13.25 1.23686C13.8574 0.886195 14.5913 0.695778 15.6653 0.59844C16.7462 0.500479 18.1216 0.5 20 0.5C21.8784 0.5 23.2538 0.500479 24.3347 0.59844C25.4087 0.695778 26.1426 0.886195 26.75 1.23686C27.5861 1.71959 28.2804 2.41389 28.7631 3.25C29.1138 3.85737 29.3042 4.59135 29.4016 5.66532C29.4995 6.74617 29.5 8.12157 29.5 10C29.5 11.8784 29.4995 13.2538 29.4016 14.3347C29.3042 15.4087 29.1138 16.1426 28.7631 16.75C28.2804 17.5861 27.5861 18.2804 26.75 18.7631C26.1426 19.1138 25.4087 19.3042 24.3347 19.4016C23.2538 19.4995 21.8784 19.5 20 19.5C18.1216 19.5 16.7462 19.4995 15.6653 19.4016C14.5913 19.3042 13.8574 19.1138 13.25 18.7631C12.4139 18.2804 11.7196 17.5861 11.2369 16.75C10.8862 16.1426 10.6958 15.4087 10.5984 14.3347C10.5005 13.2538 10.5 11.8784 10.5 10Z" stroke="url(#paint1_linear_63_1273)" style="mix-blend-mode:overlay" shape-rendering="crispEdges"/>
<path fill-rule="evenodd" clip-rule="evenodd" d="M25.2193 4.70323C25.7284 5.16952 25.7631 5.96021 25.2968 6.4693C23.8554 8.04296 23.1623 9.0024 22.1213 10.8652C21.7282 11.5686 21.2929 12.544 20.9459 13.3737C20.775 13.7824 20.6301 14.1447 20.5281 14.4044C20.4772 14.5341 20.437 14.638 20.4098 14.7089L20.379 14.7895L20.3714 14.8096L20.3697 14.8142C20.2145 15.2265 19.8535 15.5277 19.4199 15.6054C18.9864 15.6831 18.5439 15.5269 18.2552 15.1942L14.6809 11.0746C14.2284 10.5532 14.2844 9.76369 14.8058 9.31127C15.3273 8.85884 16.1167 8.91479 16.5692 9.43623L18.8064 12.0147C19.1366 11.2442 19.5429 10.3542 19.9389 9.64561C21.0744 7.61387 21.8812 6.49707 23.4532 4.78072C23.9195 4.27163 24.7102 4.23694 25.2193 4.70323Z" fill="white"/>
</g>
<defs>
<filter id="filter0_ddd_63_1273" x="-70" y="-80" width="180" height="180" filterUnits="userSpaceOnUse" color-interpolation-filters="sRGB">
<feFlood flood-opacity="0" result="BackgroundImageFix"/>
<feColorMatrix in="SourceAlpha" type="matrix" values="0 0 0 0 0 0 0 0 0 0 0 0 0 0 0 0 0 0 127 0" result="hardAlpha"/>
<feOffset dy="10"/>
<feGaussianBlur stdDeviation="5"/>
<feComposite in2="hardAlpha" operator="out"/>
<feColorMatrix type="matrix" values="0 0 0 0 0 0 0 0 0 0 0 0 0 0 0 0 0 0 0.1 0"/>
<feBlend mode="normal" in2="BackgroundImageFix" result="effect1_dropShadow_63_1273"/>
<feColorMatrix in="SourceAlpha" type="matrix" values="0 0 0 0 0 0 0 0 0 0 0 0 0 0 0 0 0 0 127 0" result="hardAlpha"/>
<feOffset dy="4"/>
<feGaussianBlur stdDeviation="2"/>
<feComposite in2="hardAlpha" operator="out"/>
<feColorMatrix type="matrix" values="0 0 0 0 0 0 0 0 0 0 0 0 0 0 0 0 0 0 0.05 0"/>
<feBlend mode="normal" in2="effect1_dropShadow_63_1273" result="effect2_dropShadow_63_1273"/>
<feColorMatrix in="SourceAlpha" type="matrix" values="0 0 0 0 0 0 0 0 0 0 0 0 0 0 0 0 0 0 127 0" result="hardAlpha"/>
<feOffset dy="1"/>
<feComposite in2="hardAlpha" operator="out"/>
<feColorMatrix type="matrix" values="0 0 0 0 0 0 0 0 0 0 0 0 0 0 0 0 0 0 0.05 0"/>
<feBlend mode="normal" in2="effect2_dropShadow_63_1273" result="effect3_dropShadow_63_1273"/>
<feBlend mode="normal" in="SourceGraphic" in2="effect3_dropShadow_63_1273" result="shape"/>
</filter>
<linearGradient id="paint0_linear_63_1273" x1="20" y1="0" x2="20" y2="20" gradientUnits="userSpaceOnUse">
<stop stop-color="#5856D6"/>
<stop offset="1" stop-color="#5856D6" stop-opacity="0.5"/>
</linearGradient>
<linearGradient id="paint1_linear_63_1273" x1="17.5625" y1="13.8723" x2="26.4986" y2="1.21547" gradientUnits="userSpaceOnUse">
<stop stop-color="white" stop-opacity="0"/>
<stop offset="1" stop-color="white"/>
</linearGradient>
</defs>
</svg>
