<svg width="20" height="20" viewBox="0 0 20 20" fill="none" xmlns="http://www.w3.org/2000/svg">
<path d="M10.0001 19.5C8.12162 19.5 6.74621 19.4995 5.66534 19.4016C4.59135 19.3042 3.85737 19.1138 3.25 18.7631C2.41389 18.2804 1.71959 17.5861 1.23686 16.75C0.886195 16.1426 0.695778 15.4087 0.59844 14.3347C0.500479 13.2538 0.5 11.8784 0.5 10C0.5 8.12157 0.500479 6.74617 0.59844 5.66532C0.695778 4.59135 0.886195 3.85737 1.23686 3.25C1.71959 2.41389 2.41389 1.71959 3.25 1.23686C3.85737 0.886196 4.59135 0.695778 5.66534 0.59844C6.74621 0.500479 8.12162 0.5 10.0001 0.5C11.8785 0.5 13.254 0.500479 14.3348 0.59844C15.4088 0.695778 16.1428 0.886196 16.7502 1.23686C17.5863 1.71959 18.2806 2.41389 18.7633 3.25C19.114 3.85737 19.3044 4.59135 19.4017 5.66532C19.4997 6.74617 19.5002 8.12157 19.5002 10C19.5002 11.8784 19.4997 13.2538 19.4017 14.3347C19.3044 15.4087 19.114 16.1426 18.7633 16.75C18.2806 17.5861 17.5863 18.2804 16.7502 18.7631C16.1428 19.1138 15.4088 19.3042 14.3348 19.4016C13.254 19.4995 11.8785 19.5 10.0001 19.5Z" fill="url(#paint0_linear_63_1119)" fill-opacity="0.1"/>
<path d="M10.0001 19.5C8.12162 19.5 6.74621 19.4995 5.66534 19.4016C4.59135 19.3042 3.85737 19.1138 3.25 18.7631C2.41389 18.2804 1.71959 17.5861 1.23686 16.75C0.886195 16.1426 0.695778 15.4087 0.59844 14.3347C0.500479 13.2538 0.5 11.8784 0.5 10C0.5 8.12157 0.500479 6.74617 0.59844 5.66532C0.695778 4.59135 0.886195 3.85737 1.23686 3.25C1.71959 2.41389 2.41389 1.71959 3.25 1.23686C3.85737 0.886196 4.59135 0.695778 5.66534 0.59844C6.74621 0.500479 8.12162 0.5 10.0001 0.5C11.8785 0.5 13.254 0.500479 14.3348 0.59844C15.4088 0.695778 16.1428 0.886196 16.7502 1.23686C17.5863 1.71959 18.2806 2.41389 18.7633 3.25C19.114 3.85737 19.3044 4.59135 19.4017 5.66532C19.4997 6.74617 19.5002 8.12157 19.5002 10C19.5002 11.8784 19.4997 13.2538 19.4017 14.3347C19.3044 15.4087 19.114 16.1426 18.7633 16.75C18.2806 17.5861 17.5863 18.2804 16.7502 18.7631C16.1428 19.1138 15.4088 19.3042 14.3348 19.4016C13.254 19.4995 11.8785 19.5 10.0001 19.5Z" stroke="white" stroke-opacity="0.07"/>
<path d="M10.0001 19.5C8.12162 19.5 6.74621 19.4995 5.66534 19.4016C4.59135 19.3042 3.85737 19.1138 3.25 18.7631C2.41389 18.2804 1.71959 17.5861 1.23686 16.75C0.886195 16.1426 0.695778 15.4087 0.59844 14.3347C0.500479 13.2538 0.5 11.8784 0.5 10C0.5 8.12157 0.500479 6.74617 0.59844 5.66532C0.695778 4.59135 0.886195 3.85737 1.23686 3.25C1.71959 2.41389 2.41389 1.71959 3.25 1.23686C3.85737 0.886196 4.59135 0.695778 5.66534 0.59844C6.74621 0.500479 8.12162 0.5 10.0001 0.5C11.8785 0.5 13.254 0.500479 14.3348 0.59844C15.4088 0.695778 16.1428 0.886196 16.7502 1.23686C17.5863 1.71959 18.2806 2.41389 18.7633 3.25C19.114 3.85737 19.3044 4.59135 19.4017 5.66532C19.4997 6.74617 19.5002 8.12157 19.5002 10C19.5002 11.8784 19.4997 13.2538 19.4017 14.3347C19.3044 15.4087 19.114 16.1426 18.7633 16.75C18.2806 17.5861 17.5863 18.2804 16.7502 18.7631C16.1428 19.1138 15.4088 19.3042 14.3348 19.4016C13.254 19.4995 11.8785 19.5 10.0001 19.5Z" stroke="url(#paint1_linear_63_1119)" style="mix-blend-mode:overlay"/>
<defs>
<linearGradient id="paint0_linear_63_1119" x1="10.0001" y1="0" x2="10.0001" y2="20" gradientUnits="userSpaceOnUse">
<stop stop-color="white"/>
<stop offset="1" stop-color="white" stop-opacity="0.5"/>
</linearGradient>
<linearGradient id="paint1_linear_63_1119" x1="7.56256" y1="13.8723" x2="16.4986" y2="1.2154" gradientUnits="userSpaceOnUse">
<stop stop-color="white" stop-opacity="0"/>
<stop offset="1" stop-color="white"/>
</linearGradient>
</defs>
</svg>
