<svg width="20" height="20" viewBox="0 0 20 20" fill="none" xmlns="http://www.w3.org/2000/svg">
<path d="M18.2892 7.76336C17.8049 8.98356 17.0601 10.0833 16.1067 10.9859L17.3567 12.8717C17.4791 13.0558 17.5234 13.281 17.4798 13.4978C17.4362 13.7145 17.3083 13.9051 17.1242 14.0275C16.9401 14.15 16.7149 14.1943 16.4981 14.1507C16.2814 14.1071 16.0908 13.9791 15.9684 13.795L14.7867 12.0159C14.1774 12.396 13.5214 12.6955 12.835 12.9067L13.305 14.7992C13.3583 15.0138 13.3241 15.2408 13.21 15.4302C13.096 15.6196 12.9113 15.7559 12.6967 15.8092C12.4821 15.8625 12.2551 15.8283 12.0657 15.7142C11.8763 15.6001 11.74 15.4155 11.6867 15.2009L11.205 13.26C10.4024 13.3577 9.59096 13.3577 8.78836 13.26L8.30669 15.2009C8.25343 15.4155 8.11709 15.6001 7.92768 15.7142C7.73827 15.8283 7.5113 15.8625 7.29669 15.8092C7.08209 15.7559 6.89743 15.6196 6.78335 15.4302C6.66926 15.2408 6.63509 15.0138 6.68836 14.7992L7.15836 12.9067C6.47199 12.6955 5.81595 12.396 5.20669 12.0159L4.02669 13.795C3.96606 13.8862 3.88808 13.9645 3.79718 14.0255C3.70628 14.0865 3.60426 14.1291 3.49693 14.1507C3.3896 14.1722 3.27907 14.1725 3.17165 14.1514C3.06423 14.1302 2.96202 14.0881 2.87086 14.0275C2.7797 13.9669 2.70137 13.8889 2.64035 13.798C2.57934 13.7071 2.53682 13.6051 2.51523 13.4978C2.49364 13.3904 2.4934 13.2799 2.51453 13.1725C2.53565 13.0651 2.57773 12.9628 2.63836 12.8717L3.88836 10.9859C2.9362 10.083 2.19252 8.98325 1.70919 7.76336C1.63891 7.55339 1.65491 7.32411 1.75368 7.12595C1.85245 6.92778 2.0259 6.77697 2.23586 6.70669C2.44582 6.63641 2.6751 6.65241 2.87327 6.75118C3.07143 6.84995 3.22224 7.02339 3.29252 7.23336C3.74404 8.3786 4.4869 9.38602 5.44753 10.1559C6.74194 11.1752 8.35215 11.7097 9.99919 11.6667C11.6463 11.7104 13.2568 11.1765 14.5517 10.1575C15.5138 9.38764 16.2578 8.37958 16.71 7.23336C16.7856 7.03082 16.937 6.8656 17.1321 6.77257C17.3273 6.67953 17.5509 6.66598 17.7559 6.73477C17.9608 6.80355 18.131 6.94929 18.2305 7.14121C18.3301 7.33314 18.3511 7.55622 18.2892 7.76336Z" fill="#EAF0F0"/>
</svg>
