<svg width="16" height="16" viewBox="0 0 16 16" fill="none" xmlns="http://www.w3.org/2000/svg">
<path d="M14.5076 10.6133L10.241 2.93331C9.66763 1.89998 8.87429 1.33331 8.00096 1.33331C7.12763 1.33331 6.33429 1.89998 5.76096 2.93331L1.49429 10.6133C0.954295 11.5933 0.894295 12.5333 1.32763 13.2733C1.76096 14.0133 2.61429 14.42 3.73429 14.42H12.2676C13.3876 14.42 14.241 14.0133 14.6743 13.2733C15.1076 12.5333 15.0476 11.5866 14.5076 10.6133ZM7.50096 5.99998C7.50096 5.72665 7.72763 5.49998 8.00096 5.49998C8.27429 5.49998 8.50096 5.72665 8.50096 5.99998V9.33331C8.50096 9.60665 8.27429 9.83331 8.00096 9.83331C7.72763 9.83331 7.50096 9.60665 7.50096 9.33331V5.99998ZM8.47429 11.8066C8.44096 11.8333 8.40763 11.86 8.37429 11.8866C8.33429 11.9133 8.29429 11.9333 8.25429 11.9466C8.21429 11.9666 8.17429 11.98 8.12763 11.9866C8.08763 11.9933 8.04096 12 8.00096 12C7.96096 12 7.91429 11.9933 7.86763 11.9866C7.82763 11.98 7.78763 11.9666 7.74763 11.9466C7.70763 11.9333 7.66763 11.9133 7.62763 11.8866C7.59429 11.86 7.56096 11.8333 7.52763 11.8066C7.40763 11.68 7.33429 11.5066 7.33429 11.3333C7.33429 11.16 7.40763 10.9866 7.52763 10.86C7.56096 10.8333 7.59429 10.8066 7.62763 10.78C7.66763 10.7533 7.70763 10.7333 7.74763 10.72C7.78763 10.7 7.82763 10.6866 7.86763 10.68C7.95429 10.66 8.04763 10.66 8.12763 10.68C8.17429 10.6866 8.21429 10.7 8.25429 10.72C8.29429 10.7333 8.33429 10.7533 8.37429 10.78C8.40763 10.8066 8.44096 10.8333 8.47429 10.86C8.59429 10.9866 8.66763 11.16 8.66763 11.3333C8.66763 11.5066 8.59429 11.68 8.47429 11.8066Z" fill="#E28B8B"/>
</svg>
