<svg width="17" height="16" viewBox="0 0 17 16" fill="none" xmlns="http://www.w3.org/2000/svg">
<path d="M8.98389 0.666672C7.37172 0.674518 5.80769 1.21695 4.53685 2.20899C3.26601 3.20103 2.36016 4.58661 1.96122 6.14867L1.47322 5.41067C1.42703 5.33341 1.36566 5.2663 1.29282 5.2134C1.21998 5.16049 1.13718 5.12289 1.04942 5.10286C0.961654 5.08282 0.870741 5.08077 0.782161 5.09682C0.693581 5.11287 0.60917 5.1467 0.534018 5.19626C0.458866 5.24582 0.39453 5.31009 0.34489 5.38519C0.29525 5.46029 0.261333 5.54466 0.245187 5.63322C0.22904 5.72179 0.230997 5.8127 0.25094 5.90049C0.270882 5.98827 0.308398 6.07111 0.361224 6.144L1.82789 8.36667C1.92977 8.50924 2.07998 8.60993 2.25056 8.65001C2.42474 8.68456 2.60552 8.64988 2.75456 8.55334L4.95456 7.07134C5.03041 7.02397 5.09596 6.96182 5.1473 6.8886C5.19864 6.81538 5.23472 6.73257 5.2534 6.64512C5.27208 6.55766 5.27297 6.46734 5.25602 6.37953C5.23907 6.29172 5.20463 6.20822 5.15475 6.134C5.10486 6.05978 5.04056 5.99635 4.96565 5.94749C4.89075 5.89863 4.80678 5.86535 4.71875 5.84961C4.63071 5.83387 4.54041 5.83601 4.45322 5.85589C4.36603 5.87577 4.28373 5.91299 4.21122 5.96534L3.21056 6.64001C3.47688 5.55893 4.04171 4.57448 4.84061 3.79898C5.63952 3.02348 6.64031 2.48815 7.72883 2.25408C8.81734 2.02001 9.94972 2.09661 10.9968 2.47515C12.0439 2.8537 12.9634 3.51893 13.6506 4.39497C14.3378 5.271 14.7649 6.32255 14.8832 7.42964C15.0015 8.53674 14.8062 9.65479 14.3196 10.6562C13.8331 11.6577 13.0748 12.5022 12.1314 13.0934C11.1879 13.6847 10.0973 13.9988 8.98389 14C8.02945 13.9974 7.08974 13.7644 6.24466 13.3208C5.39957 12.8772 4.67409 12.2361 4.12989 11.452C4.08115 11.3772 4.01787 11.3129 3.94381 11.263C3.86975 11.2131 3.78641 11.1785 3.69875 11.1615C3.61108 11.1444 3.52088 11.1451 3.4335 11.1635C3.34611 11.182 3.26333 11.2178 3.19006 11.2689C3.11678 11.3199 3.05452 11.3852 3.00696 11.4608C2.9594 11.5364 2.92752 11.6208 2.9132 11.7089C2.89888 11.7971 2.90242 11.8872 2.92361 11.974C2.94481 12.0608 2.98321 12.1424 3.03656 12.214C3.92127 13.4894 5.19178 14.4475 6.66137 14.9473C8.13095 15.447 9.7221 15.4622 11.201 14.9906C12.6798 14.519 13.9684 13.5855 14.8773 12.3271C15.7863 11.0688 16.2676 9.55216 16.2506 8.00001C16.2571 6.06461 15.4958 4.20563 14.1335 2.83086C12.7712 1.45609 10.9193 0.677783 8.98389 0.666672Z" fill="#EAF0F0"/>
<path d="M8.91667 3.96667C8.73986 3.96667 8.57029 4.03691 8.44526 4.16194C8.32024 4.28696 8.25 4.45653 8.25 4.63334V8.00001C8.25284 8.17624 8.32268 8.34477 8.44533 8.47134L10.4453 10.4893C10.5708 10.6129 10.7396 10.6825 10.9157 10.6834C11.0918 10.6842 11.2613 10.6163 11.388 10.494C11.5135 10.3695 11.5844 10.2003 11.5852 10.0235C11.5859 9.84673 11.5165 9.67689 11.392 9.55134L9.58333 7.72601V4.63334C9.58333 4.45653 9.5131 4.28696 9.38807 4.16194C9.26305 4.03691 9.09348 3.96667 8.91667 3.96667Z" fill="#EAF0F0"/>
</svg>
